<?xml version="1.0" standalone="no"?>
<!DOCTYPE svg PUBLIC "-//W3C//DTD SVG 20010904//EN"
 "http://www.w3.org/TR/2001/REC-SVG-20010904/DTD/svg10.dtd">
<svg version="1.0" xmlns="http://www.w3.org/2000/svg"
 width="352.000000pt" height="513.000000pt" viewBox="0 0 352.000000 513.000000"
 preserveAspectRatio="xMidYMid meet">
<metadata>
Created by potrace 1.16, written by Peter Selinger 2001-2019
</metadata>
<g transform="translate(0.000000,513.000000) scale(0.100000,-0.100000)"
fill="#000000" stroke="none">
<path d="M1753 4810 c-148 -27 -260 -144 -239 -252 10 -54 43 -98 89 -118 23
-11 51 -33 62 -50 11 -18 44 -45 72 -62 44 -25 54 -36 63 -69 5 -21 15 -57 20
-79 6 -22 12 -40 14 -40 2 0 44 18 93 41 78 36 92 40 119 30 49 -18 114 -12
178 14 l60 24 69 -29 c39 -16 74 -27 80 -23 18 11 47 89 47 129 0 69 -30 102
-155 164 -121 61 -148 88 -159 164 -9 61 -42 105 -99 135 -42 21 -65 25 -155
27 -59 2 -131 -1 -159 -6z"/>
<path d="M2774 3448 l-72 -20 33 -72 c18 -39 70 -147 116 -241 l82 -170 6
-127 c6 -116 8 -128 30 -152 48 -51 125 -51 169 -1 33 39 29 92 -15 189 -20
44 -87 200 -148 345 -62 146 -116 266 -121 267 -5 1 -41 -8 -80 -18z"/>
<path d="M1560 3248 c-118 -38 -284 -86 -368 -107 -85 -22 -162 -47 -173 -56
-10 -10 -24 -35 -30 -55 -15 -50 9 -102 58 -125 47 -23 73 -16 193 51 91 50
135 65 408 143 168 48 308 93 309 98 4 10 -49 45 -152 103 -30 17 -33 16 -245
-52z"/>
<path d="M2230 3213 c-135 -42 -246 -76 -246 -77 -1 -1 -7 -116 -13 -256 -17
-385 2 -321 -178 -602 l-156 -243 -173 -520 c-96 -286 -174 -522 -174 -525 0
-3 20 -11 45 -18 l44 -12 -26 -57 c-24 -52 -48 -80 -190 -230 -16 -17 -33 -23
-63 -23 -52 0 -76 -13 -95 -50 -22 -43 -18 -76 14 -112 l30 -33 218 3 c242 3
251 6 285 73 23 45 26 224 4 255 -12 17 -13 28 -3 62 7 22 15 44 19 47 4 4 28
0 54 -9 26 -9 49 -16 51 -16 2 0 20 26 40 58 19 31 106 165 191 296 l156 240
193 -394 c107 -217 196 -396 198 -399 3 -2 40 12 83 32 43 21 83 37 89 37 17
0 23 -43 27 -197 l3 -142 -34 -42 c-43 -55 -45 -99 -4 -140 31 -31 83 -39 121
-19 10 5 81 77 159 159 134 143 141 152 141 191 0 23 -6 53 -14 68 -19 36
-150 162 -169 162 -16 0 -30 29 -32 65 -1 11 -93 234 -206 495 l-203 475 -4
109 -4 109 66 136 c154 320 204 580 151 784 -18 69 -128 330 -141 333 -5 1
-119 -32 -254 -73z"/>
</g>
</svg>
